<svg version="1.1" xmlns="http://www.w3.org/2000/svg" xmlns:xlink="http://www.w3.org/1999/xlink" x="0px" y="0px" viewBox="0 0 402.3 75.8" style="enable-background:new 0 0 402.3 75.8;" xml:space="preserve" class="logo">
<style type="text/css">
	.st0{fill:#F59C00;}
	.st1{fill:#ffffff;}
	.st2{fill:#FFFFFF;}
	.st3{fill:none;}
</style>
<g>
	<path class="st0" d="M17.5,75.8h42.7c9.7,0,17.5-7.8,17.5-17.5V17c0-9.4,0-17,0-17H17.5C7.8,0,0,7.8,0,17.5v40.9
		C0,68,7.8,75.8,17.5,75.8z"></path>
	<g>
		<path class="st1" d="M95.7,42.9h4.7l7.4,19.3h-4.7l-1.6-4.1h-7.5l-1.3,4.1h-4.4L95.7,42.9z M98.5,48.7c-0.1-0.3-0.3-1.2-0.5-2.6
			c-0.3,1.5-0.5,2.4-0.6,2.7l-2.1,6.1h5.3L98.5,48.7z"></path>
		<path class="st1" d="M109.4,41.8h3.7v20.4h-3.7V41.8z"></path>
		<path class="st1" d="M116.1,41.8h3.7v20.4h-3.7V41.8z"></path>
		<path class="st1" d="M124.7,41.8c1.2,0,2.2,1,2.2,2.2c0,1.2-1,2.2-2.2,2.2c-1.2,0-2.2-1.1-2.2-2.2
			C122.5,42.8,123.5,41.8,124.7,41.8z M122.9,49.3h3.7v12.9h-3.7V49.3z"></path>
		<path class="st1" d="M138.8,62.2l0.1-1.9c-1,1.6-2.4,2.4-4.4,2.4c-3.3,0-5.7-2.7-5.7-7c0-4.3,2.2-6.9,5.8-6.9
			c1.9,0,3.3,0.8,4.3,2.6v-2.1h3.6v12.9H138.8z M135.8,52c-2,0-3.3,1.4-3.3,3.8c0,2.3,1.2,3.7,3.3,3.7s3.3-1.3,3.3-3.7
			C139,53.3,137.7,52,135.8,52z"></path>
		<path class="st1" d="M145,49.3h3.7v2c1.3-1.7,2.9-2.5,4.8-2.5c2,0,3.3,0.7,4.1,2c0.5,0.9,0.5,2,0.5,3.3c0,0.1,0,0.3,0,0.4v7.5
			h-3.7v-6.4c0-2.5-0.2-3.9-2.5-3.9c-1.1,0-1.9,0.5-2.5,1.2c-0.6,0.8-0.6,1.8-0.6,2.9c0,0.2,0,0.3,0,0.5v5.7H145V49.3z"></path>
		<path class="st1" d="M166.8,62.7c-4,0-6.9-2.8-6.9-7c0-4.1,2.9-6.9,7-6.9c1.3,0,2.3,0.2,3.4,0.8l0,3.8c-0.8-0.8-1.8-1.3-3-1.3
			c-2,0-3.5,1.3-3.5,3.5c0,2.1,1.3,3.6,3.6,3.6c1.2,0,2.1-0.4,2.9-1.3l0,3.9C169.2,62.4,168.1,62.7,166.8,62.7z"></path>
		<path class="st1" d="M175.7,56.7c0.3,1.9,1.3,2.8,3.2,2.8c1.3,0,2.3-0.5,3-1.6l3,1.5c-1.4,2.3-3.4,3.3-6.1,3.3
			c-4.3,0-6.8-2.8-6.8-6.9c0-4,2.8-7,6.8-7c4.1,0,6.7,2.6,6.7,6.8c0,0.3,0,0.6-0.1,1H175.7z M178.8,51.9c-1.7,0-2.7,0.8-3,2.5h5.9
			C181.5,52.8,180.5,51.9,178.8,51.9z"></path>
		<path class="st1" d="M193.4,62.2l5.8-13.6l5.5,13.6h-1.3l-1.7-4.4h-5.4l-1.7,4.4H193.4z M196.8,56.7h4.6l-2.2-5.7L196.8,56.7z"></path>
		<path class="st1" d="M205.6,49.1h1.2v8.6c0,1.3,0.3,2.3,0.9,2.9c0.6,0.6,1.5,0.9,2.7,0.9c1.2,0,2.1-0.3,2.7-0.9
			c0.6-0.6,0.9-1.6,0.9-2.9v-8.6h1.2v8.2c0,1.8-0.4,3.1-1.2,4c-0.8,0.9-2,1.3-3.6,1.3c-1.6,0-2.8-0.4-3.6-1.3
			c-0.8-0.9-1.2-2.2-1.2-4V49.1z"></path>
		<path class="st1" d="M217.1,60l1-0.5c0.2,0.6,0.5,1.1,1,1.5c0.5,0.4,1,0.5,1.7,0.5c0.8,0,1.5-0.2,1.9-0.7c0.5-0.5,0.7-1.2,0.7-2
			c0-0.6-0.2-1.2-0.5-1.6c-0.3-0.4-1-0.9-2-1.5c-1.3-0.7-2.2-1.3-2.6-1.8c-0.4-0.5-0.7-1.2-0.7-1.9c0-0.9,0.3-1.7,0.9-2.3
			c0.6-0.6,1.4-0.9,2.4-0.9c0.7,0,1.2,0.1,1.7,0.4c0.5,0.3,0.9,0.7,1.2,1.2l-0.9,0.6c-0.2-0.4-0.5-0.7-0.8-0.9
			c-0.3-0.2-0.8-0.3-1.2-0.3c-0.6,0-1.2,0.2-1.5,0.6c-0.4,0.4-0.6,0.9-0.6,1.5c0,0.9,0.8,1.8,2.3,2.6c0.3,0.1,0.5,0.3,0.6,0.3
			c1.1,0.6,1.9,1.2,2.2,1.7c0.4,0.5,0.6,1.3,0.6,2.1c0,1.2-0.3,2.1-1,2.8c-0.7,0.7-1.6,1-2.8,1c-0.9,0-1.6-0.2-2.2-0.6
			C218,61.5,217.5,60.9,217.1,60z"></path>
		<path class="st1" d="M229.4,62.2v-12h-3.6v-1.1h8.4v1.1h-3.6v12H229.4z"></path>
		<path class="st1" d="M244,62.2h-1.4l-4.6-6.2h-0.7v6.2H236V49.1h2.4c1.4,0,2.5,0.3,3.2,0.9c0.7,0.6,1.1,1.5,1.1,2.7
			c0,1-0.3,1.8-0.9,2.4c-0.6,0.6-1.4,0.9-2.5,0.9L244,62.2z M237.2,50.1V55h1.2c1.1,0,1.9-0.2,2.3-0.5c0.4-0.4,0.7-1,0.7-1.8
			c0-0.9-0.2-1.5-0.7-1.9c-0.5-0.4-1.2-0.6-2.3-0.6H237.2z"></path>
		<path class="st1" d="M243.7,62.2l5.8-13.6l5.5,13.6h-1.3l-1.7-4.4h-5.4l-1.7,4.4H243.7z M247.1,56.7h4.6l-2.2-5.7L247.1,56.7z"></path>
		<path class="st1" d="M256.3,62.2V49.1h1.2v12h4.5v1.1H256.3z"></path>
		<path class="st1" d="M263.6,62.2V49.1h1.2v13.1H263.6z"></path>
		<path class="st1" d="M266.1,62.2l5.8-13.6l5.5,13.6h-1.3l-1.7-4.4h-5.4l-1.7,4.4H266.1z M269.5,56.7h4.6l-2.2-5.7L269.5,56.7z"></path>
	</g>
	<g>
		<path class="st1" d="M100.8,17.7c-4.1,0-6.7,2.7-6.7,6.8c0,4,2.3,6.6,6.3,6.6c2.2,0,4.1-0.7,5.8-2.2l0,4.2c-1.8,1-3.7,1.5-5.8,1.5
			c-6.2,0-10.5-4.3-10.5-10.1c0-5.7,4.2-10.1,10.6-10.1c2.4,0,4.3,0.6,5.9,1.3l-0.1,4.1C104.7,18.6,103.1,17.7,100.8,17.7z"></path>
		<path class="st1" d="M115.8,34.6c-4.3,0-7.2-3.1-7.2-6.9c0-3.9,3-6.9,7.2-6.9c4.3,0,7.2,3,7.2,6.9C123,31.6,120,34.6,115.8,34.6z
			 M115.8,24.2c-2.1,0-3.4,1.4-3.4,3.4c0,2.1,1.3,3.5,3.4,3.5c2.1,0,3.4-1.4,3.4-3.5C119.2,25.6,117.9,24.2,115.8,24.2z"></path>
		<path class="st1" d="M133.4,20.8c0.4,0,0.9,0.1,1.4,0.2l-0.6,4c-0.6-0.2-1.1-0.4-1.8-0.4c-2.4,0-3.2,1.2-3.2,3.8v5.7h-3.7V21.2
			h3.7l-0.1,3.3C129.9,22,131.3,20.8,133.4,20.8z"></path>
		<path class="st1" d="M136.2,21.2h3.6v2.1c1-1.7,2.4-2.6,4.3-2.6c3.7,0,5.8,2.6,5.8,6.9c0,4.3-2.3,7-5.7,7c-2,0-3.4-0.7-4.4-2.4
			c0.1,0.8,0.1,1.6,0.1,2.4V40h-3.7V21.2z M142.9,31.4c2,0,3.3-1.4,3.3-3.7c0-2.3-1.2-3.8-3.3-3.8c-1.9,0-3.2,1.4-3.2,3.8
			C139.7,30,140.9,31.4,142.9,31.4z"></path>
		<path class="st1" d="M159,34.6c-4.3,0-7.2-3.1-7.2-6.9c0-3.9,3-6.9,7.2-6.9c4.3,0,7.2,3,7.2,6.9C166.1,31.6,163.2,34.6,159,34.6z
			 M158.9,24.2c-2.1,0-3.4,1.4-3.4,3.4c0,2.1,1.3,3.5,3.4,3.5c2.1,0,3.4-1.4,3.4-3.5C162.3,25.6,161,24.2,158.9,24.2z"></path>
		<path class="st1" d="M176.6,20.8c0.4,0,0.9,0.1,1.4,0.2l-0.6,4c-0.6-0.2-1.1-0.4-1.8-0.4c-2.4,0-3.2,1.2-3.2,3.8v5.7h-3.7V21.2
			h3.7l-0.1,3.3C173.1,22,174.5,20.8,176.6,20.8z"></path>
		<path class="st1" d="M188.7,34.1l0.1-1.9c-1,1.6-2.4,2.4-4.4,2.4c-3.3,0-5.7-2.7-5.7-7c0-4.3,2.2-6.9,5.8-6.9
			c1.9,0,3.3,0.8,4.3,2.6v-2.1h3.6v12.9H188.7z M185.7,23.9c-2,0-3.3,1.4-3.3,3.8c0,2.3,1.2,3.7,3.3,3.7c2,0,3.3-1.3,3.3-3.7
			C188.9,25.3,187.6,23.9,185.7,23.9z"></path>
		<path class="st1" d="M196.1,24.2h-1.8v-2.9h1.8v-4.3h3.7v4.3h1.8v2.9h-1.8v10h-3.7V24.2z"></path>
		<path class="st1" d="M206.6,28.6c0.3,1.9,1.3,2.8,3.2,2.8c1.3,0,2.3-0.5,3-1.6l3,1.5c-1.4,2.3-3.4,3.3-6.1,3.3
			c-4.3,0-6.8-2.8-6.8-6.9c0-4,2.8-7,6.8-7c4.1,0,6.7,2.6,6.7,6.8c0,0.3,0,0.6-0.1,1H206.6z M209.7,23.9c-1.7,0-2.7,0.8-3,2.5h5.9
			C212.3,24.7,211.4,23.9,209.7,23.9z"></path>
		<path class="st1" d="M228.4,14.9h4.3l3.7,11.3c0.1,0.4,0.3,1.3,0.5,2.6c0.2-1.4,0.4-2.3,0.5-2.6l3.8-11.3h4.3l2.9,19.3h-3.9
			l-1.4-11.6c-0.1-1.1-0.3-2.1-0.3-3.2c0-0.2,0-0.5,0-0.7c-0.3,1.6-0.5,2.7-0.7,3.2l-4.1,12.3h-2.3l-4-12.3
			c-0.1-0.2-0.3-1.3-0.7-3.2c0,0.2,0,0.4,0,0.6c0,1.4-0.1,2.5-0.2,3.3l-1.4,11.6h-3.9L228.4,14.9z"></path>
		<path class="st1" d="M253.4,28.6c0.3,1.9,1.3,2.8,3.2,2.8c1.3,0,2.3-0.5,3-1.6l3,1.5c-1.4,2.3-3.4,3.3-6.1,3.3
			c-4.3,0-6.8-2.8-6.8-6.9c0-4,2.8-7,6.8-7c4.1,0,6.7,2.6,6.7,6.8c0,0.3,0,0.6-0.1,1H253.4z M256.5,23.9c-1.7,0-2.7,0.8-3,2.5h5.9
			C259.2,24.7,258.2,23.9,256.5,23.9z"></path>
		<path class="st1" d="M265.7,21.2h3.7v2c1.3-1.7,2.9-2.5,4.8-2.5c2,0,3.3,0.7,4.1,2c0.5,0.9,0.5,2,0.5,3.3c0,0.1,0,0.3,0,0.4v7.5
			H275v-6.4c0-2.5-0.2-3.9-2.5-3.9c-1.1,0-1.9,0.5-2.5,1.2c-0.6,0.8-0.6,1.8-0.6,2.9c0,0.2,0,0.3,0,0.5v5.7h-3.7V21.2z"></path>
		<path class="st1" d="M282.5,24.2h-1.8v-2.9h1.8v-4.3h3.7v4.3h1.8v2.9h-1.8v10h-3.7V24.2z"></path>
		<path class="st1" d="M299.4,34.1l0.1-1.9c-1,1.6-2.4,2.4-4.4,2.4c-3.3,0-5.7-2.7-5.7-7c0-4.3,2.2-6.9,5.8-6.9
			c1.9,0,3.3,0.8,4.3,2.6v-2.1h3.6v12.9H299.4z M296.4,23.9c-2,0-3.3,1.4-3.3,3.8c0,2.3,1.2,3.7,3.3,3.7c2,0,3.3-1.3,3.3-3.7
			C299.6,25.3,298.3,23.9,296.4,23.9z"></path>
		<path class="st1" d="M306.4,13.7h3.7v20.4h-3.7V13.7z"></path>
		<path class="st1" d="M322,14.9h4.1v7.7h8.4v-7.7h4.1v19.3h-4.1v-8.1h-8.4v8.1H322V14.9z"></path>
		<path class="st1" d="M345.2,28.6c0.3,1.9,1.3,2.8,3.2,2.8c1.3,0,2.3-0.5,3-1.6l3,1.5c-1.4,2.3-3.4,3.3-6.1,3.3
			c-4.3,0-6.8-2.8-6.8-6.9c0-4,2.8-7,6.8-7c4.1,0,6.7,2.6,6.7,6.8c0,0.3,0,0.6-0.1,1H345.2z M348.3,23.9c-1.7,0-2.7,0.8-3,2.5h5.9
			C351,24.7,350,23.9,348.3,23.9z"></path>
		<path class="st1" d="M366.8,34.1l0.1-1.9c-1,1.6-2.4,2.4-4.4,2.4c-3.3,0-5.7-2.7-5.7-7c0-4.3,2.2-6.9,5.8-6.9
			c1.9,0,3.3,0.8,4.3,2.6v-2.1h3.6v12.9H366.8z M363.8,23.9c-2,0-3.3,1.4-3.3,3.8c0,2.3,1.2,3.7,3.3,3.7c2,0,3.3-1.3,3.3-3.7
			C367,25.3,365.7,23.9,363.8,23.9z"></path>
		<path class="st1" d="M373.8,13.7h3.7v20.4h-3.7V13.7z"></path>
		<path class="st1" d="M381.6,24.2h-1.8v-2.9h1.8v-4.3h3.7v4.3h1.8v2.9h-1.8v10h-3.7V24.2z"></path>
		<path class="st1" d="M389.2,13.7h3.7V21c0,0.8-0.1,1.6-0.2,2.4c1.5-1.8,3-2.6,4.9-2.6c2,0,3.4,0.7,4.1,2c0.5,0.9,0.5,2,0.5,3.3
			c0,0.1,0,0.3,0,0.4v7.5h-3.7v-6.4c0-2.5-0.2-3.9-2.5-3.9c-1.1,0-1.9,0.5-2.5,1.2c-0.6,0.8-0.6,1.8-0.6,2.9c0,0.2,0,0.3,0,0.5v5.7
			h-3.7V13.7z"></path>
	</g>
	<g>
		<g>
			<path class="st2" d="M26.7,43.2v-8.8h2.5v1.4c0.8-1.1,1.7-1.7,2.9-1.7c1.4,0,2.4,0.6,2.7,1.8c0.8-1.2,1.9-1.8,3.1-1.8
				c1.2,0,2.1,0.5,2.6,1.4c0.3,0.7,0.3,1.4,0.3,2.3c0,0.1,0,0.2,0,0.3v5.1h-2.5v-4.3c0-1.7-0.2-2.7-1.5-2.7c-1.4,0-1.9,1.1-1.9,3.1
				v3.9h-2.5v-4.3c0-1.7-0.2-2.6-1.4-2.6c-1.4,0-1.9,1-1.9,3.1v3.9H26.7z"></path>
			<path class="st2" d="M42.6,29.4h2.5v4.9c0,0.5,0,1.1-0.1,1.6c1-1.2,2-1.7,3.4-1.7c1.4,0,2.3,0.5,2.8,1.4c0.3,0.6,0.4,1.4,0.4,2.3
				c0,0.1,0,0.2,0,0.3v5.1H49v-4.3c0-1.7-0.1-2.7-1.7-2.7c-0.7,0-1.3,0.3-1.7,0.8c-0.4,0.6-0.4,1.2-0.4,1.9c0,0.1,0,0.2,0,0.3v3.9
				h-2.5V29.4z"></path>
		</g>
		<g>
			<path class="st3" d="M54.2,38c0-7.2-6.1-13.2-13.8-13.8v27.7C48.1,51.2,54.2,45.2,54.2,38z"></path>
			<path class="st2" d="M54.2,14v5.1c-3.9-2.8-8.7-4.6-13.8-4.9v10c7.8,0.7,13.8,6.6,13.8,13.8s-6.1,13.2-13.8,13.8v10
				c5.2-0.3,10-2.1,13.8-4.9v4.8h9.9V47.6v-8.7V14H54.2z"></path>
			<path class="st2" d="M23.5,38c0-7.2,6.1-13.2,13.8-13.8v-10C24.1,15,13.6,25.4,13.6,38c0,12.7,10.5,23.1,23.8,23.8v-10
				C29.6,51.2,23.5,45.2,23.5,38z"></path>
		</g>
	</g>
</g>
</svg>
